{
  "accessors": [
    {
      "bufferView": 2,
      "componentType": 5126,
      "count": 65532,
      "max": [
        11.523334503173828,
        6.517666816711426,
        1.8342571258544922
      ],
      "min": [
        -12.186758995056152,
        -7.224647521972656,
        -5.06528902053833
      ],
      "type": "VEC3"
    },
    {
      "bufferView": 2,
      "byteOffset": 786384,
      "componentType": 5126,
      "count": 65532,
      "max": [
        0.9963836669921875,
        0.9999032020568848,
        0.9462429881095886
      ],
      "min": [
        -0.9983339905738831,
        -0.9996588826179504,
        -0.9999969005584717
      ],
      "type": "VEC3"
    },
    {
      "bufferView": 1,
      "componentType": 5126,
      "count": 65532,
      "max": [
        0.9984520077705383,
        0.999576985836029
      ],
      "min": [
        0.0004079999926034361,
        0.0005600000149570405
      ],
      "type": "VEC2"
    },
    {
      "bufferView": 0,
      "componentType": 5125,
      "count": 313458,
      "type": "SCALAR"
    },
    {
      "bufferView": 2,
      "byteOffset": 1572768,
      "componentType": 5126,
      "count": 65533,
      "max": [
        9.351156234741211,
        6.146276473999023,
        1.3744535446166992
      ],
      "min": [
        -8.483217239379883,
        -7.184268951416016,
        -4.918081283569336
      ],
      "type": "VEC3"
    },
    {
      "bufferView": 2,
      "byteOffset": 2359164,
      "componentType": 5126,
      "count": 65533,
      "max": [
        0.9993455410003662,
        0.9999032020568848,
        0.7846693992614746
      ],
      "min": [
        -0.998816192150116,
        -0.9999362826347351,
        -0.9999951720237732
      ],
      "type": "VEC3"
    },
    {
      "bufferView": 1,
      "byteOffset": 524256,
      "componentType": 5126,
      "count": 65533,
      "max": [
        0.999468982219696,
        0.9996690154075623
      ],
      "min": [
        0.0003260000084992498,
        0.0006249999860301614
      ],
      "type": "VEC2"
    },
    {
      "bufferView": 0,
      "byteOffset": 1253832,
      "componentType": 5125,
      "count": 275586,
      "type": "SCALAR"
    },
    {
      "bufferView": 2,
      "byteOffset": 3145560,
      "componentType": 5126,
      "count": 65533,
      "max": [
        11.604093551635742,
        6.517831802368164,
        1.8413472175598145
      ],
      "min": [
        -11.29633903503418,
        -7.121401786804199,
        -4.937390327453613
      ],
      "type": "VEC3"
    },
    {
      "bufferView": 2,
      "byteOffset": 3931956,
      "componentType": 5126,
      "count": 65533,
      "max": [
        0.9993295073509216,
        0.9997792840003967,
        0.9166370630264282
      ],
      "min": [
        -0.9960060119628906,
        -0.9999529123306274,
        -0.9999961853027344
      ],
      "type": "VEC3"
    },
    {
      "bufferView": 1,
      "byteOffset": 1048520,
      "componentType": 5126,
      "count": 65533,
      "max": [
        0.9983699917793274,
        0.9996770024299622
      ],
      "min": [
        0.0003220000071451068,
        0.000691999972332269
      ],
      "type": "VEC2"
    },
    {
      "bufferView": 0,
      "byteOffset": 2356176,
      "componentType": 5125,
      "count": 274683,
      "type": "SCALAR"
    },
    {
      "bufferView": 2,
      "byteOffset": 4718352,
      "componentType": 5126,
      "count": 65532,
      "max": [
        3.9922523498535156,
        5.885109901428223,
        1.421590805053711
      ],
      "min": [
        -12.005285263061523,
        -7.233907699584961,
        -5.086140155792236
      ],
      "type": "VEC3"
    },
    {
      "bufferView": 2,
      "byteOffset": 5504736,
      "componentType": 5126,
      "count": 65532,
      "max": [
        0.9976818561553955,
        0.9997068643569946,
        0.8317670226097107
      ],
      "min": [
        -0.9970282912254333,
        -0.9999253749847412,
        -0.9999495148658752
      ],
      "type": "VEC3"
    },
    {
      "bufferView": 1,
      "byteOffset": 1572784,
      "componentType": 5126,
      "count": 65532,
      "max": [
        0.9994400143623352,
        0.9996730089187622
      ],
      "min": [
        0.00033099998836405575,
        0.0007350000087171793
      ],
      "type": "VEC2"
    },
    {
      "bufferView": 0,
      "byteOffset": 3454908,
      "componentType": 5125,
      "count": 256773,
      "type": "SCALAR"
    },
    {
      "bufferView": 2,
      "byteOffset": 6291120,
      "componentType": 5126,
      "count": 39026,
      "max": [
        11.594442367553711,
        5.874811172485352,
        0.9157490730285645
      ],
      "min": [
        -12.177257537841797,
        -5.063226699829102,
        -5.040645122528076
      ],
      "type": "VEC3"
    },
    {
      "bufferView": 2,
      "byteOffset": 6759432,
      "componentType": 5126,
      "count": 39026,
      "max": [
        0.9982943534851074,
        0.9994034171104431,
        0.8778199553489685
      ],
      "min": [
        -0.9958382844924927,
        -0.9998950362205505,
        -0.9999459385871887
      ],
      "type": "VEC3"
    },
    {
      "bufferView": 1,
      "byteOffset": 2097040,
      "componentType": 5126,
      "count": 39026,
      "max": [
        0.9970800280570984,
        0.9996470212936401
      ],
      "min": [
        0.0003239999932702631,
        0.0010319999419152737
      ],
      "type": "VEC2"
    },
    {
      "bufferView": 0,
      "byteOffset": 4482000,
      "componentType": 5125,
      "count": 125610,
      "type": "SCALAR"
    },
    {
      "bufferView": 2,
      "byteOffset": 7227744,
      "componentType": 5126,
      "count": 65533,
      "max": [
        11.614248275756836,
        6.500161170959473,
        4.309114933013916
      ],
      "min": [
        -12.181196212768555,
        -7.224628448486328,
        -4.526188373565674
      ],
      "type": "VEC3"
    },
    {
      "bufferView": 2,
      "byteOffset": 8014140,
      "componentType": 5126,
      "count": 65533,
      "max": [
        0.9999003410339355,
        0.9992650151252747,
        0.9999890923500061
      ],
      "min": [
        -0.9999483823776245,
        -0.9991441369056702,
        -0.8728715777397156
      ],
      "type": "VEC3"
    },
    {
      "bufferView": 1,
      "byteOffset": 2409248,
      "componentType": 5126,
      "count": 65533,
      "max": [
        0.9986950159072876,
        0.9995819926261902
      ],
      "min": [
        0.00045900000259280205,
        0.001154000055976212
      ],
      "type": "VEC2"
    },
    {
      "bufferView": 0,
      "byteOffset": 4984440,
      "componentType": 5125,
      "count": 302511,
      "type": "SCALAR"
    },
    {
      "bufferView": 2,
      "byteOffset": 8800536,
      "componentType": 5126,
      "count": 65532,
      "max": [
        11.614248275756836,
        4.904903888702393,
        4.292112827301025
      ],
      "min": [
        -11.521601676940918,
        -7.206543922424316,
        -4.299327850341797
      ],
      "type": "VEC3"
    },
    {
      "bufferView": 2,
      "byteOffset": 9586920,
      "componentType": 5126,
      "count": 65532,
      "max": [
        0.9999003410339355,
        0.9085802435874939,
        0.9999815225601196
      ],
      "min": [
        -0.9997444152832031,
        -0.9871942400932312,
        -0.5980345010757446
      ],
      "type": "VEC3"
    },
    {
      "bufferView": 1,
      "byteOffset": 2933512,
      "componentType": 5126,
      "count": 65532,
      "max": [
        0.9987040162086487,
        0.999675989151001
      ],
      "min": [
        0.0003490000090096146,
        0.0007800000021234155
      ],
      "type": "VEC2"
    },
    {
      "bufferView": 0,
      "byteOffset": 6194484,
      "componentType": 5125,
      "count": 275025,
      "type": "SCALAR"
    },
    {
      "bufferView": 2,
      "byteOffset": 10373304,
      "componentType": 5126,
      "count": 65532,
      "max": [
        4.949443817138672,
        6.519069671630859,
        4.307800769805908
      ],
      "min": [
        -11.211658477783203,
        -5.754388809204102,
        -2.6476900577545166
      ],
      "type": "VEC3"
    },
    {
      "bufferView": 2,
      "byteOffset": 11159688,
      "componentType": 5126,
      "count": 65532,
      "max": [
        0.8543083071708679,
        0.9998105764389038,
        0.9999979734420776
      ],
      "min": [
        -0.9853711724281311,
        -0.7111278176307678,
        -0.38249456882476807
      ],
      "type": "VEC3"
    },
    {
      "bufferView": 1,
      "byteOffset": 3457768,
      "componentType": 5126,
      "count": 65532,
      "max": [
        0.9986839890480042,
        0.9996709823608398
      ],
      "min": [
        0.00033000000985339284,
        0.0005649999948218465
      ],
      "type": "VEC2"
    },
    {
      "bufferView": 0,
      "byteOffset": 7294584,
      "componentType": 5125,
      "count": 257067,
      "type": "SCALAR"
    },
    {
      "bufferView": 2,
      "byteOffset": 11946072,
      "componentType": 5126,
      "count": 63335,
      "max": [
        11.607278823852539,
        6.521197319030762,
        4.305008411407471
      ],
      "min": [
        -12.186079978942871,
        -7.216046333312988,
        -4.4448418617248535
      ],
      "type": "VEC3"
    },
    {
      "bufferView": 2,
      "byteOffset": 12706092,
      "componentType": 5126,
      "count": 63335,
      "max": [
        0.9986454844474792,
        0.9994958639144897,
        0.9999979734420776
      ],
      "min": [
        -0.9999483823776245,
        -0.9999253749847412,
        -0.6100317239761353
      ],
      "type": "VEC3"
    },
    {
      "bufferView": 1,
      "byteOffset": 3982024,
      "componentType": 5126,
      "count": 63335,
      "max": [
        0.9987069964408875,
        0.9996560215950012
      ],
      "min": [
        0.00033099998836405575,
        0.001069999998435378
      ],
      "type": "VEC2"
    },
    {
      "bufferView": 0,
      "byteOffset": 8322852,
      "componentType": 5125,
      "count": 210777,
      "type": "SCALAR"
    }
  ],
  "asset": {
    "extras": {
      "author": "naka2012 (https://sketchfab.com/naka2012)",
      "license": "CC-BY-4.0 (http://creativecommons.org/licenses/by/4.0/)",
      "source": "https://sketchfab.com/3d-models/sliced-musk-melon-bb71097528224362afa2df6b7b81676d",
      "title": "Sliced Musk Melon"
    },
    "generator": "Sketchfab-0.8.0",
    "version": "2.0"
  },
  "bufferViews": [
    {
      "buffer": 0,
      "byteLength": 9165960,
      "name": "floatBufferViews",
      "target": 34963
    },
    {
      "buffer": 0,
      "byteLength": 4488704,
      "byteOffset": 9165960,
      "byteStride": 8,
      "name": "floatBufferViews",
      "target": 34962
    },
    {
      "buffer": 0,
      "byteLength": 13466112,
      "byteOffset": 13654664,
      "byteStride": 12,
      "name": "floatBufferViews",
      "target": 34962
    }
  ],
  "buffers": [
    {
      "byteLength": 27120776,
      "uri": "scene.bin"
    }
  ],
  "images": [
    {
      "uri": "textures/melon_body_texture_baseColor.png"
    },
    {
      "uri": "textures/rear_1_baseColor.jpeg"
    }
  ],
  "materials": [
    {
      "doubleSided": true,
      "name": "melon_body_texture",
      "pbrMetallicRoughness": {
        "baseColorTexture": {
          "index": 0
        },
        "metallicFactor": 0.0
      }
    },
    {
      "doubleSided": true,
      "name": "rear_1",
      "pbrMetallicRoughness": {
        "baseColorTexture": {
          "index": 1
        },
        "metallicFactor": 0.0
      }
    }
  ],
  "meshes": [
    {
      "name": "Object_0",
      "primitives": [
        {
          "attributes": {
            "NORMAL": 1,
            "POSITION": 0,
            "TEXCOORD_0": 2
          },
          "indices": 3,
          "material": 0,
          "mode": 4
        }
      ]
    },
    {
      "name": "Object_1",
      "primitives": [
        {
          "attributes": {
            "NORMAL": 5,
            "POSITION": 4,
            "TEXCOORD_0": 6
          },
          "indices": 7,
          "material": 0,
          "mode": 4
        }
      ]
    },
    {
      "name": "Object_2",
      "primitives": [
        {
          "attributes": {
            "NORMAL": 9,
            "POSITION": 8,
            "TEXCOORD_0": 10
          },
          "indices": 11,
          "material": 0,
          "mode": 4
        }
      ]
    },
    {
      "name": "Object_3",
      "primitives": [
        {
          "attributes": {
            "NORMAL": 13,
            "POSITION": 12,
            "TEXCOORD_0": 14
          },
          "indices": 15,
          "material": 0,
          "mode": 4
        }
      ]
    },
    {
      "name": "Object_4",
      "primitives": [
        {
          "attributes": {
            "NORMAL": 17,
            "POSITION": 16,
            "TEXCOORD_0": 18
          },
          "indices": 19,
          "material": 0,
          "mode": 4
        }
      ]
    },
    {
      "name": "Object_5",
      "primitives": [
        {
          "attributes": {
            "NORMAL": 21,
            "POSITION": 20,
            "TEXCOORD_0": 22
          },
          "indices": 23,
          "material": 1,
          "mode": 4
        }
      ]
    },
    {
      "name": "Object_6",
      "primitives": [
        {
          "attributes": {
            "NORMAL": 25,
            "POSITION": 24,
            "TEXCOORD_0": 26
          },
          "indices": 27,
          "material": 1,
          "mode": 4
        }
      ]
    },
    {
      "name": "Object_7",
      "primitives": [
        {
          "attributes": {
            "NORMAL": 29,
            "POSITION": 28,
            "TEXCOORD_0": 30
          },
          "indices": 31,
          "material": 1,
          "mode": 4
        }
      ]
    },
    {
      "name": "Object_8",
      "primitives": [
        {
          "attributes": {
            "NORMAL": 33,
            "POSITION": 32,
            "TEXCOORD_0": 34
          },
          "indices": 35,
          "material": 1,
          "mode": 4
        }
      ]
    }
  ],
  "nodes": [
    {
      "children": [
        1
      ],
      "matrix": [
        1.0,
        0.0,
        0.0,
        0.0,
        0.0,
        2.220446049250313e-16,
        -1.0,
        0.0,
        0.0,
        1.0,
        2.220446049250313e-16,
        0.0,
        0.0,
        0.0,
        0.0,
        1.0
      ],
      "name": "Sketchfab_model"
    },
    {
      "children": [
        2
      ],
      "name": "root"
    },
    {
      "children": [
        3
      ],
      "matrix": [
        1.0,
        0.0,
        0.0,
        0.0,
        0.0,
        2.220446049250313e-16,
        1.0,
        0.0,
        0.0,
        -1.0,
        2.220446049250313e-16,
        0.0,
        0.0,
        0.0,
        0.0,
        1.0
      ],
      "name": "GLTF_SceneRootNode"
    },
    {
      "children": [
        4,
        5,
        6,
        7,
        8,
        9,
        10,
        11,
        12
      ],
      "matrix": [
        0.9566379189491272,
        0.0,
        0.0,
        0.0,
        0.0,
        8.063854477592461e-08,
        0.9566379189491239,
        0.0,
        0.0,
        -0.9566379189491239,
        8.063854477592461e-08,
        0.0,
        0.7582483291625977,
        4.127306938171387,
        -0.905414879322052,
        1.0
      ],
      "name": "melon.001_2"
    },
    {
      "mesh": 0,
      "name": "Object_4"
    },
    {
      "mesh": 1,
      "name": "Object_5"
    },
    {
      "mesh": 2,
      "name": "Object_6"
    },
    {
      "mesh": 3,
      "name": "Object_7"
    },
    {
      "mesh": 4,
      "name": "Object_8"
    },
    {
      "mesh": 5,
      "name": "Object_9"
    },
    {
      "mesh": 6,
      "name": "Object_10"
    },
    {
      "mesh": 7,
      "name": "Object_11"
    },
    {
      "mesh": 8,
      "name": "Object_12"
    }
  ],
  "samplers": [
    {
      "magFilter": 9729,
      "minFilter": 9987,
      "wrapS": 10497,
      "wrapT": 10497
    }
  ],
  "scene": 0,
  "scenes": [
    {
      "name": "Sketchfab_Scene",
      "nodes": [
        0
      ]
    }
  ],
  "textures": [
    {
      "sampler": 0,
      "source": 0
    },
    {
      "sampler": 0,
      "source": 1
    }
  ]
}
